# xmcd
#
# Track frame offsets: 
#        150
#        12177
#        25085
#        41352
#        59015
#
# Disc length: 961 seconds
#
# Revision: 1
# Processed by: cddbd v1.5.2PL0 Copyright (c) Steve Scherf et al.
# Submitted via: ExactAudioCopy v0.95b4
#
DISCID=3503bf05
DTITLE=Dublin Fair - From Here And There EP
DYEAR=1994
DGENRE=Folk
TTITLE0=Underneath The Harvest Moon
TTITLE1=The Spanish Lady
TTITLE2=Football Song
TTITLE3=My Land Is Too Green
TTITLE4=Flottarkärlek
EXTD=
EXTT0=
EXTT1=
EXTT2=
EXTT3=
EXTT4=
PLAYORDER=
